# xmcd
#
# Track frame offsets:
#	150
#	17949
#	31841
#	48344
#	68953
#	81857
#	94288
#	113061
#	132124
#	152830
#	171456
#	187040
#	201526
#	215576
#	231899
#	244926
#	259551
#	267940
#	281740
#	295487
#	311422
#
# Disc length: 4297 seconds
#
# Revision: 3
# Processed by: cddbd v1.5.2PL0 Copyright (c) Steve Scherf et al.
# Submitted via: audiograbber 1.83.01
#
DISCID=4210c715
DTITLE=Various Artist - Die Hit Giganten - Country and Folk CD 2-2
DYEAR=2009
DGENRE=Country and Folk
TTITLE0=SHANIA TWAIN - That Don't Impress Me Much   
TTITLE1=NORAH JONES - Don't Know Why 
TTITLE2=EMMYLOU HARRIS - Love Hurts   
TTITLE3=PUSSYCAT - Mississippi   
TTITLE4=LYNN ANDERSON - Rose Garden 
TTITLE5=JOHNNY CASH and JUNE CARTER CASH - Jackson 
TTITLE6=DOLLY PARTON and KENNY ROGERS - Islands In The Stream   
TTITLE7=KRIS KRISTOFFERSON - Me And Bobby McGee 
TTITLE8=THE BAND - The Weight  
TTITLE9=RALPH McTELL - Streets Of London   
TTITLE10=PETER, PAUL and MARY - Leaving On A Jet Plane   
TTITLE11=GLEN CAMPBELL - Rhinestone Cowboy   
TTITLE12=FRANKIE LAINE - Riders In The Sky   
TTITLE13=TOM ASTOR - Junger Adler 
TTITLE14=TRUCK STOP - Der wilde, wilde Westen   
TTITLE15=THE BELLAMY BROTHERS - Let Your Love Flow   
TTITLE16=LORNE GREENE - Bonanza   
TTITLE17=THE BYRDS - Oh! Susannah
TTITLE18=THE HIGHWAYMEN - Highwayman
TTITLE19=WILLIE NELSON and JULIO IGLESIAS - To All The Girls I've Loved Before 
TTITLE20=Roy Orbison - Only The Lonely (Know The Way I Feel)   
EXTD=
EXTT0=
EXTT1=
EXTT2=
EXTT3=
EXTT4=
EXTT5=
EXTT6=
EXTT7=
EXTT8=
EXTT9=
EXTT10=
EXTT11=
EXTT12=
EXTT13=
EXTT14=
EXTT15=
EXTT16=
EXTT17=
EXTT18=
EXTT19=
EXTT20=
PLAYORDER=
